# xmcd
#
# Track frame offsets:
#	150
#	15693
#	29784
#	43389
#	63703
#	77862
#	105981
#	123091
#	142207
#	153527
#	170047
#	189850
#	213590
#	228866
#
# Disc length: 3341 seconds
#
# Revision: 0
# Processed by: cddbd v1.5.2PL0 Copyright (c) Steve Scherf et al.
# Submitted via: dBpowerAMP V4.0
#
DISCID=c90d0b0e
DTITLE=Albertina Walker and The Caravans - Sail Away Some Bright Morning
DYEAR=1900
DGENRE=Other
TTITLE0=Track01 Sail Away
TTITLE1=Track02 Born Again
TTITLE2=Track03 Dry Bones
TTITLE3=Track04 You Can't Beat God Giving
TTITLE4=Track05 Jeasus Will Fix It
TTITLE5=Track06 I Believe
TTITLE6=Track07 God is Not Dead
TTITLE7=Track08 Carry Me Home
TTITLE8=Track09 God's Got it
TTITLE9=Track10 If I Had a Hammer
TTITLE10=Track11 New Doctor
TTITLE11=Track12 Remember Me
TTITLE12=Track13 More Love to Thee
TTITLE13=Track 14 Move On Up a Little Higher
EXTD=Christa Williams
EXTT0=
EXTT1=
EXTT2=
EXTT3=
EXTT4=
EXTT5=
EXTT6=
EXTT7=
EXTT8=
EXTT9=
EXTT10=
EXTT11=
EXTT12=
EXTT13=
PLAYORDER=
